<svg xmlns="http://www.w3.org/2000/svg" viewBox="0 0 160 160" width="160" height="160">
  <g>
    <rect class="cls-1" />
    <path class="cls-2" d="M74.69,59.69c-.46-1.22-.68-2.62-1.42-3.63-4.19-5.71-4.62-12.24-4.22-18.91.33-5.49,3.87-9.46,9-10.54,4.35-.91,9.27,1.16,11.37,5.17.93,1.78,1.51,3.9,1.67,5.9.4,5.15-.05,10.25-1.74,15.21-.61,1.78-.76,3.73-1.08,5.61-.34,2.01.64,3.19,2.48,3.8,2.54.85,5.08,1.71,7.62,2.56,3.11,1.04,5.25,3.05,7.04,5.87,3.36,5.3,7.15,10.33,10.77,15.47.87,1.24,1.55,1.19,2.68.02,4.07-4.27,8.29-8.41,12.51-12.53.75-.73,1.76-1.5,2.72-1.6.89-.09,2.2.49,2.69,1.2.33.49-.43,1.72-.8,2.94,2.72,3.63,7.27,5.62,11.92,7.49,2.42.98,2.58,1.86,1.1,3.99-2.22,3.19-5.19,4.57-8.95,3.44-2.6-.78-5.09-1.96-8.07-3.14-1.59,1.95-3.41,4.39-5.45,6.62-2.42,2.65-5,5.17-7.59,7.66-1.57,1.52-3.3,1.59-4.82-.12-4.11-4.64-8.15-9.34-12.29-13.96-1.02-1.14-2.33-2.03-3.5-3.04-.65,1.38-1.57,2.7-1.89,4.15-1.17,5.24-2.75,10.49-3,15.8-.24,5.2.78,10.49,1.56,15.69.58,3.86,1.6,7.65,2.53,11.45.48,1.98,0,2.78-2.17,2.78-10.13-.01-20.26.06-30.38.17-1.97.02-2.51-.73-2.36-2.63,1.06-13.82.33-27.61-.71-41.4-.24-3.14-.26-6.29-.49-9.43-.05-.75-.54-1.47-.83-2.2-.8.35-1.76.52-2.38,1.08-4.21,3.8-8.23,7.82-12.53,11.51-3.33,2.86-4.44,2.74-7.16-.69-3.53-4.44-6.75-9.12-10.14-13.68-2.93-3.94-2.95-3.91-6.86-1.01-1.78,1.32-3.55,2.69-5.44,3.85-1.75,1.07-3.22.29-5.47-2.4-1.19-1.42-.61-2.61.41-3.65,2.37-2.4,4.82-4.71,7.25-7.05,1.47-1.41,2.55-2.81,2.26-5.17-.36-2.86,1.12-3.74,3.57-2.06,3.27,2.24,6.39,4.73,9.34,7.38,2.67,2.4,5.08,5.11,7.5,7.77.96,1.05,1.84,1.05,2.77.24,4.98-4.28,10.59-7.87,14.18-13.64,2.09-3.35,5.56-4.38,9.45-3.32,2.24.61,4.52,1.08,6.78,1.62.19-.22.39-.45.58-.67Z"/>
  </g>
</svg>