<svg xmlns="http://www.w3.org/2000/svg" viewBox="0 0 160 160" width="160" height="160">
  <g>
    <rect class="cls-1"/>
    <path class="cls-2" d="M68.85,86.66c-3.29-6.01-8.07-8.88-14.01-10.18-6.21-1.36-12.46-2.58-18.65-4.06-13.4-3.21-15.24-9.91-10.26-23.44,3.96-10.75,13.18-16.45,24.15-18.59,13.41-2.62,26.39-1.97,36.08,9.5,2.86,3.38,4.59,7.72,7.14,12.15,2.73-9.31,3.57-19.71,12.76-25.49,8.45-5.32,17.83-7.59,28.19-6.87-2.51,1.36-5.1,2.6-7.53,4.1-10.54,6.52-14.4,16.68-14.51,28.38-.11,11.63-.14,23.34.98,34.9,2.53,26.11-16.23,41.25-33.8,49.05-11.37,5.05-23.14,4.22-34.38-.39-7.11-2.91-13.35-7.43-14.26-16.2-1.14-11.07,3.13-19.84,12.79-24.89,6.45-3.37,13.9-4.83,20.92-7.1,1.22-.39,2.53-.52,4.37-.89ZM58.61,34.91c-6.47,1.16-14.71,3.32-21.36,9.12-5.2,4.54-5.87,10.56-4.44,17.05,1.29,5.88,5.98,7.2,10.8,8.3,3.59.82,7.25,1.39,10.88,2.03,5.65,1,11.05,2.1,15.37,6.66,7.05,7.46,7.91,7.23,14.36-.96.93-1.18,1.75-2.48,2.4-3.83,8.65-17.69-5.34-38.36-28.02-38.37ZM38.73,113.78c.1,9.66,3.9,12.76,13.31,10.87,9.39-1.89,17.13-11.09,17.48-20.78.32-8.8-2.77-11.61-11.12-10.11-11.88,2.13-19.78,10.17-19.67,20.03Z"/>
  </g>
</svg>