<svg xmlns="http://www.w3.org/2000/svg" viewBox="0 0 160 160" width="160" height="160">
  <g>
    <rect class="cls-1"/>
    <path class="cls-2" d="M130,48.38c-8.49,1.9-17.02.24-25.6-1.27-3.85-.68-7.8-1.02-11.72-1.1-4.6-.09-7.64,2.07-7.7,7.06-.18,14.75-.33,29.49-.4,44.24-.02,4.67-.22,9.41.43,14.01.84,5.9-1.94,9.54-6.22,12.75-12.88,9.65-35.19,8.08-45.82-2.98-3.9-4.06-3.7-8.01-.9-12.14,5.23-7.7,13.05-11.61,21.96-11.92,6.57-.23,13.2,1.66,20.86,2.75,0-11.06.07-23.54-.02-36.03-.08-10.63-.25-21.26-.59-31.89-.11-3.53,1.45-4.31,4.54-4.13,9.25.52,18.02,2.25,26.17,7.17,8.04,4.85,16.54,8.96,25.01,13.49Z"/>
  </g>
</svg>