<svg xmlns="http://www.w3.org/2000/svg" viewBox="0 0 160 160" width="160" height="160">
  <g>
    <rect class="cls-1"/>
    <path class="cls-2" d="M52.36,141.4c1.2-5.61,8.29-9.38,13.66-7.34.59.22,1.49-.25,2.2-.51,1.98-.73,3.95-1.5,5.91-2.29.75-.3,1.58-.57,2.14-1.1,1.69-1.59,3.29-3.29,4.89-4.97.27-.28.59-.75.53-1.06-.56-2.86,1.47-3.26,3.42-4.24,1.63-.82,3.25-2.42,4.01-4.07,1.54-3.35,1.3-3.46,3.99-5.92-1.02-.28-1.82-.51-2.62-.71-2.25-.58-4.63-.88-6.72-1.82-1.66-.75-3.13-2.13-4.36-3.52-1.33-1.49-1.81-4.06-4.44-3.77-2.98.33-5.98.86-7.8,3.73-2.83,4.44-2.86,4.52-7.88,2.88-6.98-2.28-14.51-8.6-14.22-18.87.23-8.12,2.68-15.73,3.83-23.62.3-2.06.63-4.12.71-6.19.11-2.94-1.39-5.07-3.89-6.5-2.34-1.33-4.21-.35-6.15,1.1-1.08.81-2.57,1.5-3.88,1.49-2.82-.01-4.14,1.44-5.17,3.78-1.17,2.67-1.93,2.76-4.2.96-6.28-4.98-7.43-11.3-3-17.99.76-1.15,2.52-1.65,3.83-2.42.83-.49,1.82-.77,2.53-1.39,3.34-2.93,6.59-5.96,9.92-8.89.39-.34,1.16-.59,1.61-.45,2.94.95,5.37-.6,7.84-1.59,6.83-2.75,13.21-1.46,19.4,1.87.73.39,1.14,1.36,1.66,2.02-2.28.74-4.17,1.36-6.49,2.12,3.77,4.33,6.74,8.37,6.56,14.06-2.48-1.55-4.72-2.96-7.54-4.73.38,2.99.54,5.13.93,7.22,1.38,7.4-.65,14.57-1.28,21.84-.23,2.6.07,5.34.66,7.89.31,1.35,1.78,2.42,3.07,4.05,1.01-1.03,2.14-2.04,3.1-3.18,1.56-1.84,3.05-3.73,4.5-5.66,1.12-1.49,1.93-1.37,2.61.67,3-2.66,6.19-4.58,10.32-5.03v3.29c1.07-1.18,1.98-2.12,2.8-3.12,1.29-1.56,2.65-2.44,4.91-2.13,2.4.33,4.78-2.63,4.87-5.58.04-1.39,0-2.78,0-5.02,1.23.98,2.15,1.45,2.68,2.2,1.24,1.72,2.33,1.43,3.63.12,3.5-3.53,5.75-7.73,6.72-12.58.52-2.6.8-5.25,1.24-7.87.13-.77.4-1.52.82-3.06,2.29,2.95,4.13,5.33,5.97,7.69,6.96-2.63,12.54-1.98,15.96,2.09-3.19,1.05-6.26,2.06-9.34,3.08,6.22,1.13,10.85,4.35,13.74,9.84.91,1.73,1.25,3.77,1.49,5.97-3.98-2.71-7.87-4.82-13.09-3.88,6.11,3.56,9.61,10.2,8.07,15.13-2.61-1.8-3.62-5.53-7.2-6.04.26,3.35.52,6.59.82,10.41-1.2-.48-1.92-.55-2.3-.95-3.88-4.13-8.68-3.6-12.78-1.12-5.05,3.04-8.07,7.67-8.4,13.68-.28,5.2,3.44,7.66,8.22,5.64.61-.26,1.35-.22,2.03-.32-.05.77.17,1.74-.21,2.28-1.27,1.8-2.84,3.39-4.13,5.18-.6.83-1.37,2.06-1.16,2.87.5,1.88-.4,2.7-1.64,3.72-1.53,1.25-2.87,2.73-4.23,4.17-.38.4-.84,1.09-.74,1.52.77,3.17-1.52,3.49-3.56,4.77-2.79,1.76-4.89,4.6-7.3,6.99,3.75,3.98,8.04,6.23,12.66,8.09,1.63.65,2.96,2.17,4.24,3.48.33.33.1,1.43-.19,2.02-.1.21-1.14-.02-1.75-.07-1.19-.11-2.38-.38-3.56-.31-1.15.06-2.29.43-3.42.72-4.32,1.13-8.41.75-12.21-1.74-2-1.31-3.82-1.27-6,.03-1.84,1.09-4.13,1.78-6.28,1.95-6.47.51-12.91.57-19.27-1.45-1.81-.58-4.08.29-6.31.51Z"/>
  </g>
</svg>