<?xml version="1.0" encoding="UTF-8"?><svg id="_레이어_2" xmlns="http://www.w3.org/2000/svg" viewBox="0 0 160 160"><defs><style>.cls-1{fill:none;}.cls-1,.cls-2{stroke-width:0px;}.cls-2{fill:#fff;}</style></defs><g id="_레이어_1-2"><rect class="cls-1" width="160" height="160"/><path class="cls-2" d="M126.33,27.95c-6.95-4.43-14.99-7.42-22.5-5.24-7.85,2.13-13.26,8.68-14.92,16.29-1.01,2.85-.9,7.79-3.63,9.56-1.18.7-3.18.24-4.72-.21-19.2-6.2-40.65,4.94-43.06,25.66-.9,5.5,1.04,10.95.46,16.43-.24,3.02-2.73,4.96-4.72,7.02-6.94,7.12-2.82,14.92,3.66,20.75,2.97,3.02,5.61,5.93,9.09,8.19,4.01,2.75,10.87,5.65,9.42,11.61-1.06,3.03-4.96,2.25-7.43,3.03-1.47.43-2.17,1.6-.11,1.95,7.47.29,15.2-.2,22.1.12,1.05.12,3.72-.22,2.94-1.67-.78-1.35-5.58-.39-6.9-1.86l-.07-.1c-.49-1.04.37-2.32,1.13-3.06,1.6-1.56,4.77-.86,6.78-1.79,2.46-.97,3.06-3.81,3.34-6.27,1.06-11.36,12.15-10.36,19.98-15.21,14.62-7.05,14.92-16.14,14.53-28.91-.49-13.69.69-7.95,10.85-11.87,16.28-7.39,19.21-34.36,3.76-44.41ZM45.98,121.18c-3.17,0-5.5-4.25-5.5-9.5s1.57-9.5,5.5-9.5,5.5,4.25,5.5,9.5-2.33,9.5-5.5,9.5ZM63.43,122.75c-3.78,0-6.57-4.86-6.57-10.86s1.88-10.86,6.57-10.86,6.57,4.86,6.57,10.86-2.78,10.86-6.57,10.86Z"/></g></svg>