<?xml version="1.0" encoding="UTF-8"?><svg id="_레이어_2" xmlns="http://www.w3.org/2000/svg" viewBox="0 0 160 160"><defs><style>.cls-1{fill:none;}.cls-1,.cls-2{stroke-width:0px;}.cls-2{fill:#fff;}</style></defs><g id="_레이어_1-2"><rect class="cls-1" width="160" height="160"/><path class="cls-2" d="M106.28,35.83c-.52-.32-.73-.96-.5-1.51l1.85-4.49-.3-.17-2.96,3.82c-.37.48-1.04.61-1.57.31-31.59-17.56-58.91-9.83-75.13,6.79-.12.12-.04.33.13.35,8.81,1.05,10.37,4.59,5.03,10.8-.13.15-.06.39.12.45,18.58,6.05,23.1,10.74,27.16,20.66.14.34.46.58.82.62,9.19,1.04,11.66,2.45,16.91,5.49l-38.14,62.57c-.35.57-.06,1.32.58,1.51l2.55.75c.46.13.94-.06,1.17-.48l35.62-63.31c4.77,2.76,7.24,4.4,12.5,11.53.19.26.51.39.83.35,10.58-1.46,16.88.06,31.21,12.88.31.27.79.15.94-.23,2.64-7.17,6.33-7.58,11.38-1.07.24.32.75.21.86-.17,5.96-22.07-.98-49.01-31.05-67.42Z"/></g></svg>