<?xml version="1.0" encoding="UTF-8"?><svg id="_레이어_2" xmlns="http://www.w3.org/2000/svg" viewBox="0 0 160 160"><defs><style>.cls-1{fill:none;}.cls-1,.cls-2{stroke-width:0px;}.cls-2{fill:#fff;}</style></defs><g id="_레이어_1-2"><rect class="cls-1" width="160" height="160"/><path class="cls-2" d="M88.44,50.87c2.76-5.88-1.75-13.04-8.28-13.04-.05,0-.11,0-.16,0-5.11,0-9.25,4.14-9.25,9.25,0,1.28.26,2.5.73,3.61l6.13,13.38h4.77l6.06-13.2ZM80,56.32c1.28,0,2.57-.25,3.68-.76l-3.69,8.03-3.68-8.03c1.12.51,2.4.76,3.69.76Z"/><path class="cls-2" d="M68.3,52.08l-.02-.05c-.67-1.58-1.01-3.25-1-4.96,0-3.4,1.32-6.59,3.73-9,2.4-2.4,5.6-3.73,9-3.73h.16c4.25,0,8.19,2.21,10.54,5.91,2.36,3.71,2.69,8.23.89,12.05l-5.4,11.75h27.52c1.82,0,3.44-1.18,3.99-2.92l12.73-39.88c-.47-.76-1.31-1.27-2.27-1.27H31.83c-.95,0-1.78.5-2.26,1.26l13.18,39.94c.57,1.72,2.17,2.88,3.98,2.88h27.07l-5.47-11.94-.02-.05Z"/><path class="cls-2" d="M123.05,122.18H37.59c-1.32,0-2.5.84-2.93,2.08l-5.07,14.51c.48.74,1.3,1.23,2.24,1.23h96.34c.97,0,1.8-.52,2.27-1.29l-4.43-14.34c-.4-1.3-1.61-2.19-2.97-2.19Z"/><path class="cls-2" d="M71.63,81.81c-.53,1.18-.9,2.54-.88,3.95,0,5.11,4.14,9.25,9.25,9.25.06,0,.11,0,.17,0,6.8,0,11.31-7.75,7.97-13.66l-6.33-13.82h-3.62l-6.55,14.27ZM80,76.52c-1.29,0-2.57.25-3.69.76l3.68-8.01,3.67,8c-1.11-.5-2.38-.75-3.66-.75Z"/><path class="cls-2" d="M121.02,62.21c-1.02,3.19-3.95,5.33-7.3,5.33h-28.09l5.61,12.25c2.1,3.83,2,8.44-.28,12.36-2.31,3.97-6.35,6.34-10.79,6.34-.07,0-.14,0-.2,0-7-.02-12.69-5.72-12.69-12.69-.02-1.78.38-3.6,1.2-5.44l5.89-12.82h-27.64c-3.31,0-6.24-2.11-7.28-5.26l-10.29-31.2v98.39l2.22-6.36c.92-2.64,3.42-4.41,6.21-4.41h85.46c2.9,0,5.43,1.86,6.29,4.64l1.51,4.88V31.42l-9.82,30.79Z"/></g></svg>