<?xml version="1.0" encoding="UTF-8"?><svg id="_레이어_2" xmlns="http://www.w3.org/2000/svg" viewBox="0 0 160 160"><defs><style>.cls-1{fill:none;}.cls-1,.cls-2{stroke-width:0px;}.cls-2{fill:#fff;}</style></defs><g id="_레이어_1-2"><rect class="cls-1" width="160" height="160"/><path class="cls-2" d="M116.78,19.85H46.17c-4.99,0-9.03,4.04-9.03,9.03v101.93c0,4.99,4.04,9.03,9.03,9.03h70.61c4.99,0,9.03-4.04,9.03-9.03V28.88c0-4.99-4.04-9.03-9.03-9.03ZM53.45,132.65c1.07-4.54,2.1-8.91,3.21-13.62v13.62h-3.21ZM93.74,94.52c3.91,5,7.42,9.5,11,14.07-4.15,4.84-8.19,9.55-12.61,14.71-3.77-9.89-.13-18.89,1.61-28.78ZM119.12,114.3v9.89c0,4.69-3.84,8.54-8.54,8.54h-11.01c6.25-5.89,13.69-12.9,19.55-18.42ZM52.37,26.98h58.22c4.69,0,8.54,3.84,8.54,8.54v63.86c-5.36-8.25-12.15-18.67-17.77-26.62-1.45-2.05-4.57-3-7.04-4.21-1.5-.73-3.2-1.19-4.85-1.44-3.99-.6-4.69-3-3.9-6.47,1.13-4.98,2.46-9.94,3.18-14.98.67-4.64-.27-9.03-3.91-12.51-5.09-4.86-12.35-4.43-16.72,1.12-6.34,8.05-7.17,19.44-2.08,28.41.41.72.75,1.47,1.32,2.59-10.85-.78-15.31,7.86-17.52,18.24-1.71,8.04-2.8,16.21-4.21,24.31-.1.59-1.03,3.63-1.8,5.98V35.53c0-4.7,3.85-8.55,8.55-8.55Z"/></g></svg>