<svg xmlns:dc="http://purl.org/dc/elements/1.1/" xmlns:cc="http://creativecommons.org/ns#" xmlns:rdf="http://www.w3.org/1999/02/22-rdf-syntax-ns#" xmlns:svg="http://www.w3.org/2000/svg" xmlns="http://www.w3.org/2000/svg" xmlns:sodipodi="http://sodipodi.sourceforge.net/DTD/sodipodi-0.dtd" xmlns:inkscape="http://www.inkscape.org/namespaces/inkscape" version="1.1"  width="100" height="100" viewBox="0 0 100 100">
  <g transform="translate(0,-950)">
    <path style="text-indent:0;text-transform:none;direction:ltr;block-progression:tb;baseline-shift:baseline;color:#000000;enable-background:accumulate;" d="m 42.419038,965.3622 c -12.738,0 -25.9125,10.30454 -35.0173999,17.38877 -0.3969,0.29268 -0.522,0.89694 -0.2741,1.3233 0.248,0.42636 0.835,0.61613 1.2855,0.41558 6.8356999,-1.32559 12.9454999,4.57688 15.9283999,9.67448 0.2042,0.37071 0.6589,0.58479 1.0746,0.50586 9.1019,-1.71928 15.6391,3.21083 21.5223,8.97891 l -8.7859,20.3607 c -0.7529,0.09 -1.4315,0.641 -1.675,1.3595 l -4.0453,11.1288 c -0.4736,1.0166 0.096,2.3814 1.1512,2.7597 1.0554,0.3784 2.3616,-0.3141 2.6413,-1.4002 l 4.0453,-11.1288 c 0.2362,-0.6355 0.1252,-1.3885 -0.2845,-1.9286 l 9.102,-21.1511 c 9.0127,-0.6477 14.6269,1.4271 25.0936,9.0422 0.3503,0.2693 0.8823,0.2693 1.2326,0 4.6329,-3.7077 10.9756,-2.8789 15.7704,2.877 0.272,0.3589 0.7999,0.4962 1.2122,0.3153 0.4124,-0.1809 0.669,-0.6624 0.5893,-1.1057 -2.0163,-13.1103 -4.0573,-27.5956 -15.4544,-36.99063 -1.6646,-1.38192 -3.5991,-2.10717 -5.0882,-2.84544 -2.101,-1.05089 -4.8431,-2.63877 -8.5015,-5.7541 l 0.6321,-1.42272 c 0.2124,-0.47288 -0.059,-1.057 -0.4977,-1.30522 -0.5071,-0.2327 -1.0769,0.14044 -1.3354,0.51482 l -0.6005,1.42272 c -4.6566,-0.0496 -7.7088,-0.75949 -10.4926,-1.48595 -2.8868,-0.75336 -5.5442,-1.54918 -9.2283,-1.54918 z" fill="#000000" fill-opacity="1" stroke="none" marker="none" visibility="visible" display="inline" overflow="visible"/>
  </g>
</svg>