<svg xmlns="http://www.w3.org/2000/svg" xmlns:xlink="http://www.w3.org/1999/xlink" version="1.1" width="100" height="100" viewBox="0 0 120 120" style="enable-background:new 0 0 100 100;" xml:space="preserve">
  <g transform="translate(10,10)">
    <path d="M74.5,18C65,4.7,50.8,2.8,50.2,2.7c0,0,0,0,0,0c0,0-0.1,0-0.1,0c0,0-0.1,0-0.1,0c0,0,0,0,0,0c0,0-0.1,0-0.1,0c0,0,0,0-0.1,0  c-1.1,0.1-2,1-2,2.2v66.7c-4.3-3.6-11.2-4.7-17.8-2.3c-9.1,3.3-14.4,12-11.7,19.4C21,96.1,30.5,99.4,39.7,96c7-2.5,11.7-8.2,12.3-14  c0.1-0.2,0.1-0.4,0.1-0.6V15.6c13.6,4.7,21.8,13.8,24.4,27.2c1.4,6.9,0.9,13.3,0.3,17.1c-0.2,1.2-0.4,2.4-0.7,3.6  c-0.2,1.2,0.5,2.3,1.6,2.6c0.2,0,0.3,0.1,0.5,0.1c1,0,1.8-0.6,2.1-1.6c0-0.2,0.5-1.8,0.8-4.4C84.1,42.5,81.9,28.3,74.5,18z"/>
  </g>
</svg>